<?xml version="1.0" encoding="UTF-8" standalone="no"?>
<svg
   version="1.1"
   width="512"
   height="512"
   x="0"
   y="0"
   viewBox="0 0 64 64"
   xml:space="preserve"
   id="svg26"
   sodipodi:docname="favicon.svg"
   inkscape:version="1.2.1 (9c6d41e, 2022-07-14)"
   inkscape:export-filename="favicon.svg"
   inkscape:export-xdpi="96"
   inkscape:export-ydpi="96"
   xmlns:inkscape="http://www.inkscape.org/namespaces/inkscape"
   xmlns:sodipodi="http://sodipodi.sourceforge.net/DTD/sodipodi-0.dtd"
   xmlns="http://www.w3.org/2000/svg"
   xmlns:svg="http://www.w3.org/2000/svg"><defs
     id="defs30"><inkscape:path-effect
       effect="fillet_chamfer"
       id="path-effect1873"
       is_visible="true"
       lpeversion="1"
       nodesatellites_param="F,0,0,1,0,4,0,1 @ F,0,0,1,0,4,0,1 @ F,0,0,1,0,4,0,1 @ F,0,0,1,0,4,0,1"
       unit="px"
       method="auto"
       mode="F"
       radius="4"
       chamfer_steps="1"
       flexible="false"
       use_knot_distance="true"
       apply_no_radius="true"
       apply_with_radius="true"
       only_selected="false"
       hide_knots="false" /></defs><sodipodi:namedview
     id="namedview28"
     pagecolor="#ffffff"
     bordercolor="#000000"
     borderopacity="0.25"
     inkscape:showpageshadow="2"
     inkscape:pageopacity="0.0"
     inkscape:pagecheckerboard="0"
     inkscape:deskcolor="#d1d1d1"
     showgrid="false"
     inkscape:zoom="0.4609375"
     inkscape:cx="184.40678"
     inkscape:cy="256"
     inkscape:window-width="1440"
     inkscape:window-height="770"
     inkscape:window-x="0"
     inkscape:window-y="25"
     inkscape:window-maximized="1"
     inkscape:current-layer="svg26" /><path
     style="font-variation-settings:'wght' 499;fill:#393a59;fill-opacity:1;stroke:none;stroke-width:0.24512"
     id="rect311"
     width="64"
     height="64"
     x="0"
     y="0"
     inkscape:path-effect="#path-effect1873"
     d="m 4,0 h 56 a 4,4 45 0 1 4,4 v 56 a 4,4 135 0 1 -4,4 H 4 A 4,4 45 0 1 0,60 V 4 A 4,4 135 0 1 4,0 Z"
     sodipodi:type="rect" /><g
     id="g24"
     transform="translate(0,-0.25)"><path
       fill="#282942"
       d="M 54,45.683 A 12,12 0 0 1 62,57 v 5 H 2 v -5 a 12,12 0 0 1 8,-11.317"
       data-original="#2d4d83"
       id="path2" /><path
       fill="#ededed"
       d="M 24.15,37 A 27.244,27.244 0 0 1 20,22.546 V 19 l 6.687,-4.458 A 9.176,9.176 0 0 1 31.78,13 9.178,9.178 0 0 0 37.515,10.988 L 40,9 42.321,12.481 A 10,10 0 0 1 44,18.028 v 4.518 A 27.236,27.236 0 0 1 39.849,37"
       data-original="#fadfb2"
       id="path4" /><path
       fill="#cccccc"
       d="M 21.048,30.028 A 27.221,27.221 0 0 1 20,22.546 V 22 h -1.3 a 2.7,2.7 0 0 0 -2.7,2.7 2.7,2.7 0 0 0 1.014,2.109 l 4.034,3.217 z M 43,30 46.986,26.811 A 2.7,2.7 0 0 0 48,24.7 2.7,2.7 0 0 0 45.3,22 H 44 v 0.546 a 27.219,27.219 0 0 1 -1.037,7.444 z"
       data-original="#f5cf88"
       id="path6" /><path
       fill="#282942"
       d="m 44,22 2.711,-7.455 A 9.348,9.348 0 0 0 46.468,7.553 9.35,9.35 0 0 0 37.924,2 h -8.49 A 32.9,32.9 0 0 0 12,7 l 2.411,0.8 a 3.567,3.567 0 0 1 2.189,4.713 3.571,3.571 0 0 0 0.121,2.92 L 20,22 v -3 l 6.687,-4.458 A 9.176,9.176 0 0 1 31.78,13 9.178,9.178 0 0 0 37.515,10.988 L 40,9 42.321,12.481 A 10,10 0 0 1 44,18.028 Z"
       data-original="#976947"
       id="path8" /><path
       fill="#7f7d89"
       d="m 24,22 h 6 v 4 a 2,2 0 0 1 -2,2 h -2 a 2,2 0 0 1 -2,-2 z m 10,0 h 6 v 4 a 2,2 0 0 1 -2,2 h -2 a 2,2 0 0 1 -2,-2 z"
       data-original="#f2f0eb"
       id="path10" /><path
       fill="#393a59"
       d="m 40,22 v 2 h 3.949 C 43.975,23.517 44,23.034 44,22.547 V 22 Z m -20,0.546 c 0,0.487 0.025,0.97 0.051,1.453 H 24 V 22 h -4 z"
       data-original="#c1c8d1"
       id="path12" /><path
       fill="#393a59"
       d="m 30,23 h 4 v 2 h -4 z"
       data-original="#a8b0bc"
       id="path14" /><path
       fill="#6a6577"
       d="M 10,62 V 41 a 4,4 0 0 1 4,-4 h 36 a 4,4 0 0 1 4,4 v 21"
       data-original="#d5cec2"
       id="path16" /><circle
       cx="32"
       cy="54"
       r="3"
       fill="#393a59"
       data-original="#e7e4dd"
       id="circle18" /><g
       fill="#c66b60"
       id="g22"><path
         d="m 25.292,48.707 -4,-4 a 1,1 0 0 1 0,-1.415 l 4,-4 1.415,1.415 -3.293,3.293 3.293,3.292 z m 13.415,0 -1.415,-1.415 3.293,-3.292 -3.293,-3.293 1.415,-1.415 4,4 a 1,1 0 0 1 0,1.415 z m -10.508,-1.3 6,-8 1.6,1.2 -6,8 z"
         fill="#d863bb"
         data-original="#c66b60"
         id="path20" /></g></g></svg>
