<svg xmlns="http://www.w3.org/2000/svg" version="1.1" xmlns:xlink="http://www.w3.org/1999/xlink" xmlns:svgjs="http://svgjs.com/svgjs" width="512" height="512" x="0" y="0" viewBox="0 0 512.00105 512" style="enable-background:new 0 0 512 512" xml:space="preserve" class=""><g><path d="m454.339844 132.03125v284.980469c0 5.742187-.785156 11.296875-2.265625 16.554687-7.222657 25.746094-30.871094 44.628906-58.925781 44.628906h-274.308594c-28.054688 0-51.691406-18.882812-58.914063-44.628906-1.480469-5.257812-2.265625-10.8125-2.265625-16.554687v-355.808594c0-33.796875 27.382813-61.203125 61.179688-61.203125h203.457031zm0 0" fill="#c3edfc" data-original="#c3edfc"></path><path d="m454.339844 132.03125h-70.84375c-33.796875 0-61.195313-27.398438-61.195313-61.195312v-70.83203175" fill="#a1d7e5" data-original="#a1d7e5"></path><path d="m454.339844 239.765625v177.246094c0 5.742187-.785156 11.296875-2.265625 16.554687h-392.148438c-1.480469-5.257812-2.265625-10.8125-2.265625-16.554687v-177.246094zm0 0" fill="#a1d7e5" data-original="#a1d7e5"></path><path d="m470.421875 406.207031h-428.84375c-22.964844 0-41.578125-18.613281-41.578125-41.578125v-110.636718c0-22.964844 18.613281-41.578126 41.578125-41.578126h428.84375c22.964844 0 41.578125 18.613282 41.578125 41.578126v110.636718c0 22.964844-18.613281 41.578125-41.578125 41.578125zm0 0" fill="#ff557e" data-original="#ff557e"></path><g fill="#efe1f9"><path d="m168.613281 260.152344h-23.605469c-3.332031 0-4.828124 3.164062-4.828124 6.300781 0 3.867187 1.988281 6.570313 4.828124 6.570313h15.5625v56.207031c0 5.734375-1.410156 10.105469-4.1875 12.984375-2.679687 2.777344-6.640624 4.183594-11.777343 4.183594-13.714844 0-15.546875-10.507813-15.695313-15.027344-.117187-3.15625-2.574218-4.824219-7.109375-4.824219-4.425781 0-7.371093 1.1875-7.371093 6.972656 0 15.402344 12.34375 25.75 30.710937 25.75 8.789063 0 16.105469-2.363281 21.164063-6.839843 5.800781-5.132813 8.746093-12.941407 8.746093-23.199219v-64.25c0-2.398438-2.210937-4.828125-6.4375-4.828125zm0 0" fill="#efe1f9" data-original="#efe1f9"></path><path d="m230.304688 264.265625c-1.210938-3.628906-5.738282-4.917969-9.246094-4.917969-4.539063 0-8.117188 1.929688-9.113282 4.921875l-26.691406 86.917969c-.140625.421875-.140625.839844-.140625 1.246094 0 1.640625 1.074219 3.195312 3.03125 4.371094 1.726563 1.042968 3.953125 1.660156 5.953125 1.660156 2.746094 0 4.457032-1.023438 5.089844-3.042969l5.472656-18.953125h32.933594l5.472656 18.957031c.621094 1.988281 2.335938 3.039063 4.953125 3.039063 2.03125 0 4.300781-.636719 6.070313-1.710938 1.964844-1.1875 3.046875-2.726562 3.046875-4.320312 0-.425782-.140625-.84375-.273438-1.246094zm-22.484376 60.539063 13.238282-45.40625 13.238281 45.40625zm0 0" fill="#efe1f9" data-original="#efe1f9"></path><path d="m327.289062 266.1875c0-1.597656-1.082031-3.132812-3.046874-4.320312-1.773438-1.074219-4.039063-1.710938-6.070313-1.710938-2.621094 0-4.332031 1.050781-4.957031 3.042969l-21.871094 76.019531-22.007812-76.023438c-.628907-2.015624-2.339844-3.039062-5.085938-3.039062-2 0-4.226562.621094-5.953125 1.660156-1.957031 1.175782-3.03125 2.730469-3.03125 4.371094 0 .40625 0 .824219.140625 1.246094l26.828125 86.921875c.992187 2.988281 4.570313 4.917969 9.109375 4.917969 5.304688 0 8.398438-2.472657 9.113281-4.921876l26.554688-86.914062c.136719-.40625.277343-.828125.277343-1.25zm0 0" fill="#efe1f9" data-original="#efe1f9"></path><path d="m397.296875 351.1875-26.558594-86.921875c-1.210937-3.628906-5.738281-4.917969-9.246093-4.917969-4.539063 0-8.117188 1.929688-9.113282 4.921875l-26.691406 86.917969c-.140625.421875-.140625.839844-.140625 1.246094 0 1.640625 1.074219 3.195312 3.03125 4.371094 1.726563 1.042968 3.953125 1.660156 5.953125 1.660156 2.746094 0 4.457031-1.023438 5.089844-3.042969l5.472656-18.953125h32.933594l5.472656 18.957031c.621094 1.988281 2.335938 3.039063 4.953125 3.039063 2.03125 0 4.300781-.636719 6.070313-1.710938 1.964843-1.1875 3.046874-2.726562 3.046874-4.320312 0-.421875-.140624-.84375-.273437-1.246094zm-49.042969-26.382812 13.238282-45.40625 13.238281 45.40625zm0 0" fill="#efe1f9" data-original="#efe1f9"></path></g></g></svg>
