<svg xmlns="http://www.w3.org/2000/svg" version="1.1" xmlns:xlink="http://www.w3.org/1999/xlink" xmlns:svgjs="http://svgjs.com/svgjs" width="512" height="512" x="0" y="0" viewBox="0 0 358 358" style="enable-background:new 0 0 512 512" xml:space="preserve" class=""><g><g><path d="m226.755 236.856c29.91 0 54.156-24.943 54.156-55.712s-24.247-55.712-54.156-55.712v28.826c14.434 0 26.135 12.037 26.135 26.886s-11.701 26.886-26.135 26.886z" fill="#dd2f61" data-original="#dd2f61" class=""></path><path d="m77.089 98.856v156.079c0 12.28 33.504 26.443 74.833 26.443s74.833-14.164 74.833-26.443v-156.079z" fill="#fa5a78" data-original="#fa5a78"></path><ellipse cx="151.922" cy="98.856" fill="#dd2f61" rx="74.833" ry="22.235" data-original="#dd2f61" class=""></ellipse><path d="m87.113 109.967c12.938 6.648 37.106 11.124 64.809 11.124s51.871-4.476 64.809-11.124c-12.942-6.643-37.119-11.111-64.809-11.111s-51.867 4.469-64.809 11.111z" fill="#66295b" data-original="#66295b"></path></g></g></svg>